<?xml version="1.0" encoding="UTF-8"?> <svg xmlns="http://www.w3.org/2000/svg" id="Livello_2" data-name="Livello 2" viewBox="0 0 357.94 240.03"><defs><style> .cls-1, .cls-2 { fill: #d6b36a; } .cls-2 { fill-rule: evenodd; } </style></defs><g id="Livello_1-2" data-name="Livello 1"><path class="cls-2" d="M208.39,89.1l-8.7-18.26-8.7,18.26h17.39Zm48.8,33.32v35.76H98.19V47.5h69.37v10.04h-25.12v16.53h24.7v10.04h-24.7v25.53h-10.04V57.54h-24.17v90.6H247.15v-25.71h10.04ZM98.19,0h159.01V112.13h-37.84l-1.85-3.89-4.33-9.1h-26.96l-6.23,12.99h-11.14c9.66-20.21,21.86-44.75,30.85-65.02,8.33,18.79,17.42,36.96,26,54.98h21.45V10.04H108.23v27.17h-10.04V0Z"></path><path class="cls-1" d="M352.66,176.43h3.29v32.78h-3.29v-32.78Zm-48.44,32.78v-32.78h.71l21.8,25.07v-25.07h3.29v32.78h-.75l-21.67-24.85v24.85h-3.38Zm-25.99-32.78h3.29v32.78h-3.29v-32.78Zm-45.95,0h3.29v13.74h16.71v-13.74h3.29v32.78h-3.29v-15.84h-16.71v15.84h-3.29v-32.78Zm-21.7,6.05l-2.59,1.99c-1.42-1.86-3.14-3.26-5.14-4.22-1.99-.96-4.19-1.44-6.58-1.44-2.61,0-5.03,.63-7.26,1.89-2.23,1.26-3.95,2.95-5.17,5.06-1.23,2.12-1.84,4.5-1.84,7.15,0,4,1.37,7.34,4.11,10.01,2.74,2.68,6.19,4.02,10.37,4.02,4.59,0,8.42-1.8,11.51-5.39l2.59,1.96c-1.64,2.08-3.68,3.69-6.12,4.82-2.44,1.13-5.17,1.7-8.19,1.7-5.74,0-10.27-1.91-13.58-5.73-2.78-3.22-4.17-7.11-4.17-11.67,0-4.79,1.68-8.83,5.05-12.11,3.37-3.28,7.59-4.92,12.65-4.92,3.06,0,5.82,.6,8.29,1.8,2.47,1.21,4.49,2.9,6.06,5.07Zm-79.44,26.73v-32.78h.71l21.8,25.07v-25.07h3.29v32.78h-.75l-21.67-24.85v24.85h-3.38Zm-35.97-25.9l-5.64,11.93h11.25l-5.62-11.93Zm.41-6.88l15.29,32.78h-3.52l-5.12-10.77h-14.21l-5.09,10.77h-3.65l15.48-32.78h.82Zm-52.83,3.2v11.14l5.66,.05c2.2,0,3.82-.21,4.87-.62,1.05-.42,1.87-1.08,2.47-1.99,.59-.91,.88-1.93,.88-3.07s-.3-2.1-.9-3c-.59-.9-1.38-1.54-2.35-1.93-.97-.39-2.58-.58-4.83-.58h-5.8Zm-3.29-3.2h6.54c3.64,0,6.12,.15,7.41,.45,1.96,.44,3.54,1.39,4.76,2.86,1.23,1.46,1.83,3.26,1.83,5.4,0,1.78-.42,3.35-1.26,4.7-.84,1.35-2.04,2.37-3.61,3.07-1.56,.69-3.72,1.04-6.48,1.06l11.8,15.25h-4.03l-11.8-15.25h-1.89v15.25h-3.29v-32.78Zm-37.49,0H18.43v3.2H5.28v10.27h13.15v3.2H5.28v16.12H1.99v-32.78Z"></path><path class="cls-1" d="M354.61,222.43h3.33v17.6h-3.33v-17.6Zm-31.32,0h9.73v3.31h-3.21v14.29h-3.41v-14.29h-3.11v-3.31Zm-35.95,0h3.18l7.58,11.59v-11.59h3.33v17.6h-3.2l-7.56-11.55v11.55h-3.33v-17.6Zm-32.3,0h9.61v3.29h-6.28v3.16h6.28v3.24h-6.28v4.63h6.28v3.29h-9.61v-17.6Zm-39.95,0h3.25l4.1,12.28,4.12-12.28h3.24l2.95,17.6h-3.23l-1.88-11.12-3.73,11.12h-2.96l-3.71-11.12-1.92,11.12h-3.27l3.04-17.6Zm-32.3,4.68l-2.39,6.06h4.76l-2.37-6.06Zm-1.69-4.68h3.38l6.78,17.6h-3.49l-1.37-3.63h-7.22l-1.41,3.63h-3.49l6.82-17.6Zm-38.74,3.24v11.11h1.55c1.53,0,2.64-.18,3.33-.53,.69-.35,1.25-.94,1.69-1.77,.44-.83,.66-1.85,.66-3.07,0-1.87-.52-3.32-1.57-4.35-.94-.93-2.45-1.39-4.53-1.39h-1.14Zm-3.33-3.24h3.97c2.56,0,4.46,.32,5.7,.95,1.24,.63,2.27,1.66,3.07,3.09,.8,1.43,1.21,3.09,1.21,5,0,1.36-.22,2.6-.67,3.74-.45,1.14-1.07,2.08-1.87,2.83-.79,.75-1.65,1.27-2.57,1.56-.92,.29-2.53,.43-4.81,.43h-4.03v-17.6Zm-32.3,0h9.61v3.29h-6.28v3.16h6.28v3.24h-6.28v4.63h6.28v3.29h-9.61v-17.6Zm-30.24,6.89h1.06c1.08,0,1.82-.14,2.23-.42,.4-.28,.61-.75,.61-1.4,0-.38-.1-.72-.3-1.01-.2-.29-.47-.49-.81-.61-.34-.13-.96-.19-1.86-.19h-.93v3.63Zm-3.33-6.89h3.56c1.95,0,3.33,.17,4.16,.52,.83,.35,1.49,.93,1.99,1.73,.5,.8,.76,1.76,.76,2.86s-.28,2.12-.83,2.9c-.56,.78-1.39,1.37-2.51,1.77l4.16,7.83h-3.66l-3.96-7.45h-.34v7.45h-3.33v-17.6Zm-30.44,6.89h1.06c1.08,0,1.82-.14,2.23-.42,.4-.28,.61-.75,.61-1.4,0-.38-.1-.72-.3-1.01-.2-.29-.47-.49-.81-.61-.34-.13-.96-.19-1.86-.19h-.93v3.63Zm-3.33-6.89h3.56c1.95,0,3.33,.17,4.16,.52,.83,.35,1.49,.93,1.99,1.73,.5,.8,.76,1.76,.76,2.86s-.28,2.12-.83,2.9c-.56,.78-1.39,1.37-2.5,1.77l4.16,7.83h-3.66l-3.96-7.45h-.34v7.45h-3.33v-17.6Zm-30.84,4.68l-2.39,6.06h4.76l-2.37-6.06Zm-1.69-4.68h3.38l6.77,17.6h-3.49l-1.37-3.63H4.89l-1.41,3.63H0l6.82-17.6Z"></path></g></svg> 